/* XPM */
static char * marked_xpm[] = {
"7 7 3 1",
" 	c None",
".	c black",
"X	c green",
"   .   ",
"  .X.  ",
" .XXX. ",
".XXXXX.",
" .XXX. ",
"  .X.  ",
"   .   "};
