/* XPM */
static char * pixmap_8_xpm[] = {
/* columns rows colors chars-per-pixel */
"19 19 3 1",
" 	c None",
".	c black",
"X	c #7373c7c77373",
/* pixels */
"                   ",
"                   ",
"                   ",
"                   ",
"         .         ",
"        .X.        ",
"       .XXX.       ",
"      .XXXXX.      ",
"     .XXXXXXX.     ",
"    .XXXXXXXXX.    ",
"   .XXXXXXXXXXX.   ",
"  .XXXXXXXXXXXXX.  ",
" ................. ",
"                   ",
"                   ",
"                   ",
"                   ",
"                   ",
"                   "};
