/* XPM */
static char * pixmap_2_xpm[] = {
/* columns rows colors chars-per-pixel */
"19 19 3 1",
" 	c None",
".	c black",
"X	c #7373c7c77373",
/* pixels */
"                   ",
"                   ",
"                   ",
"                   ",
"                   ",
"                   ",
" ................. ",
"  .XXXXXXXXXXXXX.  ",
"   .XXXXXXXXXXX.   ",
"    .XXXXXXXXX.    ",
"     .XXXXXXX.     ",
"      .XXXXX.      ",
"       .XXX.       ",
"        .X.        ",
"         .         ",
"                   ",
"                   ",
"                   ",
"                   "};
