/* XPM */
static char * pixmap_minus_xpm[] = {
/* columns rows colors chars-per-pixel */
"19 19 3 1",
" 	c None",
".	c black",
"X	c #84840000ffff",
/* pixels */
"                   ",
"                   ",
"                   ",
"                   ",
"                   ",
"                   ",
"                   ",
"   .............   ",
"   .XXXXXXXXXXX.   ",
"   .XXXXXXXXXXX.   ",
"   .............   ",
"                   ",
"                   ",
"                   ",
"                   ",
"                   ",
"                   ",
"                   ",
"                   "};
