/* XPM */
static char * pixmap_help_xpm[] = {
/* columns rows colors chars-per-pixel */
"21 21 3 1",
" 	c None",
".	c black",
"X	c #7373c7c77373",
/* pixels */
"        .....        ",
"      ..XXXXX.       ",
"     .XXXXXXXX.      ",
"     .XXX...XXX.     ",
"    .XXX.   .XX.     ",
"    .XX.    .XX.     ",
"    .XX.   .XXX.     ",
"     ..    .XX.      ",
"          .XXX.      ",
"         .XXX.       ",
"         .XX.        ",
"        .XX.         ",
"        .XX.         ",
"        .XX.         ",
"        .XX.         ",
"         ..          ",
"         ..          ",
"        .XX.         ",
"        .XX.         ",
"        .XX.         ",
"         ..          "};
