/* XPM */
static char * pixmap_44_xpm[] = {
/* columns rows colors chars-per-pixel */
"19 19 3 1",
" 	c None",
".	c black",
"X	c #7373c7c77373",
/* pixels */
"                   ",
"                   ",
"       .     .     ",
"      ..    ..     ",
"     .X.   .X.     ",
"    .XX.  .XX.     ",
"   .XXX.  .XX.     ",
"  .XXXX. .XXX.     ",
" .XXXXX..XXXX.     ",
".XXXXXX.XXXXX.     ",
" .XXXXX..XXXX.     ",
"  .XXXX. .XXX.     ",
"   .XXX.  .XX.     ",
"    .XX.  .XX.     ",
"     .X.   .X.     ",
"      ..    ..     ",
"       .     .     ",
"                   ",
"                   "};
