/* XPM */
static char * pixmap_4_2_xpm[] = {
/* columns rows colors chars-per-pixel */
"15 15 3 1",
" 	c None",
".	c black",
"X	c #7373c7c77373",
/* pixels */
"               ",
"         .     ",
"        ..     ",
"       .X.     ",
"      .XX.     ",
"      XXX.     ",
"    .XXXX.     ",
"   .XXXXX.     ",
"    .XXXX.     ",
"      XXX.     ",
"      .XX.     ",
"       .X.     ",
"        ..     ",
"         .     ",
"               "};
