/* XPM */
static char * pixmap_1_1_xpm[] = {
/* columns rows colors chars-per-pixel */
"17 17 3 1",
" 	c None",
".	c black",
"X	c #7373c7c77373",
/* pixels */
"                 ",
"    .            ",
"    ..           ",
"    .X.          ",
"    .XXX.        ",
"    .XXXX.       ",
"    .XXXXX.      ",
"    .XXXXXX.     ",
"    .XXXXXXX.    ",
"    .XXXXXXXX    ",
"    .XXXXXXXX.   ",
"    .XXXXXXXXX.  ",
"    ............ ",
"                 ",
"                 ",
"                 ",
"                 "};
