/* XPM */
static char * pixmap_2_2_xpm[] = {
/* columns rows colors chars-per-pixel */
"15 15 3 1",
" 	c None",
".	c black",
"X	c #7373c7c77373",
/* pixels */
"               ",
"               ",
"               ",
"               ",
"               ",
" ............. ",
"  .XXXXXXXXX.  ",
"   .XXXXXXX.   ",
"    .XXXXX.    ",
"      XXX      ",
"      .X.      ",
"       .       ",
"               ",
"               ",
"               "};
