/* XPM */
static char * pixmap_rotate_xpm[] = {
/* columns rows colors chars-per-pixel */
"19 19 3 1",
" 	c None",
".	c black",
"X	c #7373c7c77373",
/* pixels */
"                   ",
"      .......      ",
"    ..XXXXXXX..    ",
"   .XX.......XX.   ",
"  .XX.       .XX.  ",
" .XX.         .XX. ",
".XX.           .XX.",
".X.             .X.",
".X.             .X.",
".XX.           .XX.",
" .XX.. .   .  .XX. ",
" .XXXX.X. .X..XXX. ",
"  .XXXXX. .X.XXX.  ",
"   .XXXX. .XXXX.   ",
"    ..XX. .XXX..   ",
"      .X. .XXXXX.  ",
"       .   .....   ",
"                   ",
"                   "};
