/* XPM */
static char * pixmap_66_xpm[] = {
/* columns rows colors chars-per-pixel */
"19 19 3 1",
" 	c None",
".	c black",
"X	c #7373c7c77373",
/* pixels */
"                   ",
"                   ",
"     .     .       ",
"     ..    ..      ",
"     .X.   .X.     ",
"     .XX.  .XX.    ",
"     .XX.  .XXX.   ",
"     .XXX. .XXXX.  ",
"     .XXXX..XXXXX. ",
"     .XXXXX.XXXXXX.",
"     .XXXX..XXXXX. ",
"     .XXX. .XXXX.  ",
"     .XX.  .XXX.   ",
"     .XX.  .XX.    ",
"     .X.   .X.     ",
"     ..    ..      ",
"     .     .       ",
"                   ",
"                   "};
