/* XPM */
static char * pixmap_4_3_xpm[] = {
/* columns rows colors chars-per-pixel */
"13 13 3 1",
" 	c None",
".	c black",
"X	c #7373c7c77373",
/* pixels */
"             ",
"        .    ",
"       ..    ",
"     .XX.    ",
"     XXX.    ",
"   .XXXX.    ",
"   XXXXX.    ",
"   .XXXX.    ",
"     XXX.    ",
"     .XX.    ",
"       ..    ",
"        .    ",
"             "};
